{"title":"The.Jungle.2013.DVDRiP.x264.AC3 - BiTo","uid":8724300,"size":1153651592,"categoryP":"video","categoryS":"movies","magnet":"?xt=urn:btih:50c6e72341924dccd14bc93c82387dbd0d889447&amp;dn=The.Jungle.2013.DVDRiP.x264.AC3+-+BiTo&amp;tr=udp%3A%2F%2Ftracker.openbittorrent.com%3A80&amp;tr=udp%3A%2F%2Fopen.demonii.com%3A1337&amp;tr=udp%3A%2F%2Ftracker.coppersurfer.tk%3A6969&amp;tr=udp%3A%2F%2Fexodus.desync.com%3A6969","seeders":1,"leechers":0,"uploader":"ValidusVyto","files":-1,"time":1374481870,"description":"_______ Visit us at our Semi Public Bittorrent Community ________\n   &lt;a href=&quot;\nhttp://p2pdl.com&quot; rel=&quot;nofollow&quot; target=&quot;_NEW&quot;&gt;\nhttp://p2pdl.com&lt;/a&gt;  _____________________________ &lt;a href=&quot; http://p2pdl.com&quot; rel=&quot;nofollow&quot; target=&quot;_NEW&quot;&gt; http://p2pdl.com&lt;/a&gt;\n\n\nThe.Jungle.2013.DVDRiP.x264.AC3 - BiTo\n\n\nBig cat conservationist LARRY BLACK and his filmmaker brother BEN travel into the Indonesian jungle to find and document the rare and endangered Javan Leopard. As they travel deeper and deeper into the jungle they realise they are being stalked by a deadly predator\n &lt;a href=&quot;\nhttp://www.imdb.com/title/tt2444092/&quot; rel=&quot;nofollow&quot; target=&quot;_NEW&quot;&gt;\nhttp://www.imdb.com/title/tt2444092/&lt;/a&gt;\n\n\nGeneral\nFormat                                   : Matroska\nFormat version                           : Version 2\nFile size                                : 1.05 GiB\nDuration                                 : 1h 24mn\nOverall bit rate mode                    : Variable\nOverall bit rate                         : 1 781 Kbps\n\nVideo\nFormat                                   : AVC\nBit rate                                 : 1 396 Kbps\nMaximum bit rate                         : 40.0 Mbps\nWidth                                    : 720 pixels\nHeight                                   : 400 pixels\nDisplay aspect ratio                     : 16:9\nFrame rate mode                          : Constant\nFrame rate                               : 23.976 fps\nBit depth                                : 8 bits\nScan type                                : Progressive\nBits/(Pixel*Frame)                       : 0.202\nStream size                              : 824 MiB (76%)\nWriting library                          : x264 core 133 r2334 a3ac64b\n\nAudio\nFormat                                   : AC-3\nFormat/Info                              : Audio Coding 3\nMode extension                           : CM (complete main)\nFormat settings, Endianness              : Big\nCodec ID                                 : A_AC3\nDuration                                 : 1h 24mn\nChannel(s)                               : 6 channels\nChannel positions                        : Front: L C R, Side: L R, LFE\nSampling rate                            : 48.0 KHz\nStream size                              : 232 MiB (22%)\n &lt;a href=&quot;\nhttp://ultraimg.com/images/6lHIJ.png&quot; rel=&quot;nofollow&quot; target=&quot;_NEW&quot;&gt;\nhttp://ultraimg.com/images/6lHIJ.png&lt;/a&gt; &lt;a href=&quot;\nhttp://ultraimg.com/images/UeZL.png&quot; rel=&quot;nofollow&quot; target=&quot;_NEW&quot;&gt;\nhttp://ultraimg.com/images/UeZL.png&lt;/a&gt; &lt;a href=&quot;\nhttp://ultraimg.com/images/WMDvS.png&quot; rel=&quot;nofollow&quot; target=&quot;_NEW&quot;&gt;\nhttp://ultraimg.com/images/WMDvS.png&lt;/a&gt;\n","torrent":{"xt":"urn:btih:50c6e72341924dccd14bc93c82387dbd0d889447","amp;dn":"The.Jungle.2013.DVDRiP.x264.AC3+-+BiTo","amp;tr":["udp%3A%2F%2Ftracker.openbittorrent.com%3A80","udp%3A%2F%2Fopen.demonii.com%3A1337","udp%3A%2F%2Ftracker.coppersurfer.tk%3A6969","udp%3A%2F%2Fexodus.desync.com%3A6969"],"infoHash":"50c6e72341924dccd14bc93c82387dbd0d889447","infoHashBuffer":{"type":"Buffer","data":[80,198,231,35,65,146,77,204,209,75,201,60,130,56,125,189,13,136,148,71]},"announce":[],"urlList":[]}}